<mxfile host="Electron" modified="2023-08-31T00:19:35.008Z" agent="Mozilla/5.0 (Windows NT 10.0; Win64; x64) AppleWebKit/537.36 (KHTML, like Gecko) draw.io/21.6.1 Chrome/112.0.5615.204 Electron/24.6.1 Safari/537.36" etag="AG8147NOp81Xe4-ZtOsV" version="21.6.1" type="device" pages="2">
  <diagram name="Page-1" id="x_AlVSORfNbmBOWKtacg">
    <mxGraphModel dx="1036" dy="606" grid="1" gridSize="10" guides="1" tooltips="1" connect="1" arrows="1" fold="1" page="1" pageScale="1" pageWidth="850" pageHeight="1100" math="0" shadow="0">
      <root>
        <mxCell id="0" />
        <mxCell id="1" parent="0" />
        <mxCell id="3Cb5WV4ifFVafpPT9-FD-2" style="edgeStyle=orthogonalEdgeStyle;rounded=0;orthogonalLoop=1;jettySize=auto;html=1;exitX=0.5;exitY=1;exitDx=0;exitDy=0;entryX=0.5;entryY=0;entryDx=0;entryDy=0;" parent="1" source="wNARSVq773CqA9ZLCm-m-8" target="wNARSVq773CqA9ZLCm-m-10" edge="1">
          <mxGeometry relative="1" as="geometry" />
        </mxCell>
        <mxCell id="wNARSVq773CqA9ZLCm-m-8" value="" style="ellipse;html=1;shape=startState;fillColor=#000000;strokeColor=#ff0000;" parent="1" vertex="1">
          <mxGeometry x="230" y="30" width="30" height="30" as="geometry" />
        </mxCell>
        <mxCell id="wNARSVq773CqA9ZLCm-m-19" style="edgeStyle=orthogonalEdgeStyle;rounded=0;orthogonalLoop=1;jettySize=auto;html=1;exitX=0.5;exitY=1;exitDx=0;exitDy=0;entryX=0.5;entryY=0;entryDx=0;entryDy=0;" parent="1" source="wNARSVq773CqA9ZLCm-m-10" target="wNARSVq773CqA9ZLCm-m-12" edge="1">
          <mxGeometry relative="1" as="geometry" />
        </mxCell>
        <mxCell id="wNARSVq773CqA9ZLCm-m-10" value="Input Search&lt;br&gt;tobacco id" style="rounded=1;whiteSpace=wrap;html=1;arcSize=40;fontColor=#000000;fillColor=#ffffc0;strokeColor=#ff0000;" parent="1" vertex="1">
          <mxGeometry x="185" y="110" width="120" height="40" as="geometry" />
        </mxCell>
        <mxCell id="3Cb5WV4ifFVafpPT9-FD-5" style="edgeStyle=orthogonalEdgeStyle;rounded=0;orthogonalLoop=1;jettySize=auto;html=1;exitX=0;exitY=0.5;exitDx=0;exitDy=0;entryX=1;entryY=0.5;entryDx=0;entryDy=0;" parent="1" source="wNARSVq773CqA9ZLCm-m-12" target="3Cb5WV4ifFVafpPT9-FD-3" edge="1">
          <mxGeometry relative="1" as="geometry" />
        </mxCell>
        <mxCell id="3Cb5WV4ifFVafpPT9-FD-11" style="edgeStyle=orthogonalEdgeStyle;rounded=0;orthogonalLoop=1;jettySize=auto;html=1;exitX=0.5;exitY=1;exitDx=0;exitDy=0;entryX=0.5;entryY=0;entryDx=0;entryDy=0;" parent="1" source="wNARSVq773CqA9ZLCm-m-12" target="3Cb5WV4ifFVafpPT9-FD-8" edge="1">
          <mxGeometry relative="1" as="geometry" />
        </mxCell>
        <mxCell id="wNARSVq773CqA9ZLCm-m-12" value="" style="rhombus;whiteSpace=wrap;html=1;fontColor=#000000;fillColor=#ffffc0;strokeColor=#ff0000;" parent="1" vertex="1">
          <mxGeometry x="205" y="200" width="80" height="40" as="geometry" />
        </mxCell>
        <mxCell id="3Cb5WV4ifFVafpPT9-FD-17" style="edgeStyle=orthogonalEdgeStyle;rounded=0;orthogonalLoop=1;jettySize=auto;html=1;exitX=0.5;exitY=1;exitDx=0;exitDy=0;" parent="1" source="wNARSVq773CqA9ZLCm-m-20" edge="1">
          <mxGeometry relative="1" as="geometry">
            <mxPoint x="460" y="510" as="targetPoint" />
          </mxGeometry>
        </mxCell>
        <mxCell id="wNARSVq773CqA9ZLCm-m-20" value="Show message&lt;br&gt;&quot;tabacco not found&quot;" style="rounded=1;whiteSpace=wrap;html=1;arcSize=40;fontColor=#000000;fillColor=#ffffc0;strokeColor=#ff0000;" parent="1" vertex="1">
          <mxGeometry x="400" y="320" width="120" height="40" as="geometry" />
        </mxCell>
        <mxCell id="wNARSVq773CqA9ZLCm-m-28" value="" style="ellipse;html=1;shape=endState;fillColor=#000000;strokeColor=#ff0000;" parent="1" vertex="1">
          <mxGeometry x="340" y="570" width="30" height="30" as="geometry" />
        </mxCell>
        <mxCell id="3Cb5WV4ifFVafpPT9-FD-18" style="edgeStyle=orthogonalEdgeStyle;rounded=0;orthogonalLoop=1;jettySize=auto;html=1;exitX=0.5;exitY=1;exitDx=0;exitDy=0;" parent="1" source="wNARSVq773CqA9ZLCm-m-29" edge="1">
          <mxGeometry relative="1" as="geometry">
            <mxPoint x="245" y="510" as="targetPoint" />
          </mxGeometry>
        </mxCell>
        <mxCell id="wNARSVq773CqA9ZLCm-m-29" value="Show ltabacco&lt;br&gt;Ã¬nformation" style="rounded=1;whiteSpace=wrap;html=1;arcSize=40;fontColor=#000000;fillColor=#ffffc0;strokeColor=#ff0000;" parent="1" vertex="1">
          <mxGeometry x="185" y="430" width="120" height="40" as="geometry" />
        </mxCell>
        <mxCell id="3Cb5WV4ifFVafpPT9-FD-7" style="edgeStyle=orthogonalEdgeStyle;rounded=0;orthogonalLoop=1;jettySize=auto;html=1;exitX=0.5;exitY=0;exitDx=0;exitDy=0;entryX=0;entryY=0.5;entryDx=0;entryDy=0;" parent="1" source="3Cb5WV4ifFVafpPT9-FD-3" target="wNARSVq773CqA9ZLCm-m-10" edge="1">
          <mxGeometry relative="1" as="geometry">
            <mxPoint x="180" y="130" as="targetPoint" />
            <Array as="points">
              <mxPoint x="90" y="130" />
            </Array>
          </mxGeometry>
        </mxCell>
        <mxCell id="3Cb5WV4ifFVafpPT9-FD-3" value="show massege&lt;br&gt;&quot;invalid id&quot;" style="rounded=1;whiteSpace=wrap;html=1;arcSize=40;fontColor=#000000;fillColor=#ffffc0;strokeColor=#ff0000;" parent="1" vertex="1">
          <mxGeometry x="30" y="200" width="120" height="40" as="geometry" />
        </mxCell>
        <mxCell id="3Cb5WV4ifFVafpPT9-FD-6" value="[invalid id]" style="text;align=center;fontStyle=1;verticalAlign=middle;spacingLeft=3;spacingRight=3;strokeColor=none;rotatable=0;points=[[0,0.5],[1,0.5]];portConstraint=eastwest;html=1;" parent="1" vertex="1">
          <mxGeometry x="140" y="200" width="80" height="26" as="geometry" />
        </mxCell>
        <mxCell id="3Cb5WV4ifFVafpPT9-FD-12" style="edgeStyle=orthogonalEdgeStyle;rounded=0;orthogonalLoop=1;jettySize=auto;html=1;exitX=1;exitY=0.5;exitDx=0;exitDy=0;entryX=0;entryY=0.5;entryDx=0;entryDy=0;" parent="1" source="3Cb5WV4ifFVafpPT9-FD-8" target="wNARSVq773CqA9ZLCm-m-20" edge="1">
          <mxGeometry relative="1" as="geometry" />
        </mxCell>
        <mxCell id="3Cb5WV4ifFVafpPT9-FD-13" style="edgeStyle=orthogonalEdgeStyle;rounded=0;orthogonalLoop=1;jettySize=auto;html=1;exitX=0.5;exitY=1;exitDx=0;exitDy=0;entryX=0.5;entryY=0;entryDx=0;entryDy=0;" parent="1" source="3Cb5WV4ifFVafpPT9-FD-8" target="wNARSVq773CqA9ZLCm-m-29" edge="1">
          <mxGeometry relative="1" as="geometry" />
        </mxCell>
        <mxCell id="3Cb5WV4ifFVafpPT9-FD-8" value="" style="rhombus;whiteSpace=wrap;html=1;fontColor=#000000;fillColor=#ffffc0;strokeColor=#ff0000;" parent="1" vertex="1">
          <mxGeometry x="205" y="320" width="80" height="40" as="geometry" />
        </mxCell>
        <mxCell id="3Cb5WV4ifFVafpPT9-FD-14" value="[valid id]" style="text;align=center;fontStyle=1;verticalAlign=middle;spacingLeft=3;spacingRight=3;strokeColor=none;rotatable=0;points=[[0,0.5],[1,0.5]];portConstraint=eastwest;html=1;" parent="1" vertex="1">
          <mxGeometry x="240" y="260" width="80" height="26" as="geometry" />
        </mxCell>
        <mxCell id="3Cb5WV4ifFVafpPT9-FD-19" value="" style="edgeStyle=orthogonalEdgeStyle;rounded=0;orthogonalLoop=1;jettySize=auto;html=1;" parent="1" source="3Cb5WV4ifFVafpPT9-FD-15" target="wNARSVq773CqA9ZLCm-m-28" edge="1">
          <mxGeometry relative="1" as="geometry" />
        </mxCell>
        <mxCell id="3Cb5WV4ifFVafpPT9-FD-15" value="" style="shape=line;html=1;strokeWidth=6;strokeColor=#ff0000;" parent="1" vertex="1">
          <mxGeometry x="210" y="510" width="290" height="10" as="geometry" />
        </mxCell>
        <mxCell id="3Cb5WV4ifFVafpPT9-FD-20" value="[not&amp;nbsp;exist in database]" style="text;align=center;fontStyle=1;verticalAlign=middle;spacingLeft=3;spacingRight=3;strokeColor=none;rotatable=0;points=[[0,0.5],[1,0.5]];portConstraint=eastwest;html=1;" parent="1" vertex="1">
          <mxGeometry x="290" y="310" width="80" height="26" as="geometry" />
        </mxCell>
        <mxCell id="3Cb5WV4ifFVafpPT9-FD-22" value="[exist in database]" style="text;align=center;fontStyle=1;verticalAlign=middle;spacingLeft=3;spacingRight=3;strokeColor=none;rotatable=0;points=[[0,0.5],[1,0.5]];portConstraint=eastwest;html=1;" parent="1" vertex="1">
          <mxGeometry x="260" y="390" width="80" height="26" as="geometry" />
        </mxCell>
      </root>
    </mxGraphModel>
  </diagram>
  <diagram id="1IVD9YQslpGo2RtqLkLd" name="Page-2">
    <mxGraphModel dx="1036" dy="606" grid="1" gridSize="10" guides="1" tooltips="1" connect="1" arrows="1" fold="1" page="1" pageScale="1" pageWidth="850" pageHeight="1100" math="0" shadow="0">
      <root>
        <mxCell id="0" />
        <mxCell id="1" parent="0" />
        <mxCell id="t3-NHMZojohIs2xP0wrp-1" value="002-Search By Id" style="shape=umlFrame;whiteSpace=wrap;html=1;pointerEvents=0;width=80;height=40;" vertex="1" parent="1">
          <mxGeometry x="50" y="30" width="850" height="800" as="geometry" />
        </mxCell>
        <mxCell id="t3-NHMZojohIs2xP0wrp-2" style="edgeStyle=orthogonalEdgeStyle;rounded=0;orthogonalLoop=1;jettySize=auto;html=1;exitX=0.5;exitY=0.5;exitDx=0;exitDy=0;exitPerimeter=0;entryX=0.507;entryY=0.567;entryDx=0;entryDy=0;entryPerimeter=0;endArrow=none;endFill=0;dashed=1;" edge="1" parent="1" source="t3-NHMZojohIs2xP0wrp-3" target="t3-NHMZojohIs2xP0wrp-14">
          <mxGeometry relative="1" as="geometry">
            <Array as="points">
              <mxPoint x="145" y="230" />
              <mxPoint x="145" y="230" />
            </Array>
          </mxGeometry>
        </mxCell>
        <mxCell id="t3-NHMZojohIs2xP0wrp-3" value="Staff" style="shape=umlActor;verticalLabelPosition=bottom;verticalAlign=top;html=1;" vertex="1" parent="1">
          <mxGeometry x="130" y="80" width="30" height="60" as="geometry" />
        </mxCell>
        <mxCell id="t3-NHMZojohIs2xP0wrp-4" style="edgeStyle=orthogonalEdgeStyle;rounded=0;orthogonalLoop=1;jettySize=auto;html=1;entryX=0.5;entryY=0;entryDx=0;entryDy=0;entryPerimeter=0;endArrow=none;endFill=0;dashed=1;" edge="1" parent="1" source="t3-NHMZojohIs2xP0wrp-5" target="t3-NHMZojohIs2xP0wrp-15">
          <mxGeometry relative="1" as="geometry" />
        </mxCell>
        <mxCell id="t3-NHMZojohIs2xP0wrp-5" value="Program" style="html=1;whiteSpace=wrap;" vertex="1" parent="1">
          <mxGeometry x="250" y="90" width="90" height="30" as="geometry" />
        </mxCell>
        <mxCell id="t3-NHMZojohIs2xP0wrp-6" style="edgeStyle=orthogonalEdgeStyle;rounded=0;orthogonalLoop=1;jettySize=auto;html=1;entryX=0.5;entryY=0;entryDx=0;entryDy=0;entryPerimeter=0;endArrow=none;endFill=0;dashed=1;" edge="1" parent="1" source="t3-NHMZojohIs2xP0wrp-7" target="t3-NHMZojohIs2xP0wrp-18">
          <mxGeometry relative="1" as="geometry" />
        </mxCell>
        <mxCell id="t3-NHMZojohIs2xP0wrp-7" value="Staff" style="html=1;whiteSpace=wrap;" vertex="1" parent="1">
          <mxGeometry x="370" y="90" width="90" height="30" as="geometry" />
        </mxCell>
        <mxCell id="t3-NHMZojohIs2xP0wrp-8" style="edgeStyle=orthogonalEdgeStyle;rounded=0;orthogonalLoop=1;jettySize=auto;html=1;exitX=0.5;exitY=1;exitDx=0;exitDy=0;entryX=0.4;entryY=0.005;entryDx=0;entryDy=0;entryPerimeter=0;endArrow=none;endFill=0;dashed=1;" edge="1" parent="1" source="t3-NHMZojohIs2xP0wrp-9" target="t3-NHMZojohIs2xP0wrp-27">
          <mxGeometry relative="1" as="geometry" />
        </mxCell>
        <mxCell id="t3-NHMZojohIs2xP0wrp-9" value="TobaccoBL" style="html=1;whiteSpace=wrap;" vertex="1" parent="1">
          <mxGeometry x="530" y="95" width="90" height="30" as="geometry" />
        </mxCell>
        <mxCell id="t3-NHMZojohIs2xP0wrp-10" style="edgeStyle=orthogonalEdgeStyle;rounded=0;orthogonalLoop=1;jettySize=auto;html=1;entryX=0.5;entryY=0;entryDx=0;entryDy=0;entryPerimeter=0;endArrow=none;endFill=0;dashed=1;" edge="1" parent="1" source="t3-NHMZojohIs2xP0wrp-11" target="t3-NHMZojohIs2xP0wrp-29">
          <mxGeometry relative="1" as="geometry" />
        </mxCell>
        <mxCell id="t3-NHMZojohIs2xP0wrp-11" value="TobaccoDAL" style="html=1;whiteSpace=wrap;" vertex="1" parent="1">
          <mxGeometry x="670" y="95" width="90" height="30" as="geometry" />
        </mxCell>
        <mxCell id="t3-NHMZojohIs2xP0wrp-12" style="edgeStyle=orthogonalEdgeStyle;rounded=0;orthogonalLoop=1;jettySize=auto;html=1;exitX=0.5;exitY=1;exitDx=0;exitDy=0;exitPerimeter=0;entryX=0.5;entryY=0.513;entryDx=0;entryDy=0;entryPerimeter=0;endArrow=none;endFill=0;dashed=1;" edge="1" parent="1" source="t3-NHMZojohIs2xP0wrp-13" target="t3-NHMZojohIs2xP0wrp-19">
          <mxGeometry relative="1" as="geometry" />
        </mxCell>
        <mxCell id="t3-NHMZojohIs2xP0wrp-13" value="DB" style="strokeWidth=2;html=1;shape=mxgraph.flowchart.database;whiteSpace=wrap;" vertex="1" parent="1">
          <mxGeometry x="820" y="90" width="60" height="60" as="geometry" />
        </mxCell>
        <mxCell id="t3-NHMZojohIs2xP0wrp-14" value="" style="shape=umlDestroy;whiteSpace=wrap;html=1;strokeWidth=3;targetShapes=umlLifeline;" vertex="1" parent="1">
          <mxGeometry x="130" y="780" width="30" height="30" as="geometry" />
        </mxCell>
        <mxCell id="t3-NHMZojohIs2xP0wrp-15" value="" style="html=1;points=[];perimeter=orthogonalPerimeter;outlineConnect=0;targetShapes=umlLifeline;portConstraint=eastwest;newEdgeStyle={&quot;edgeStyle&quot;:&quot;elbowEdgeStyle&quot;,&quot;elbow&quot;:&quot;vertical&quot;,&quot;curved&quot;:0,&quot;rounded&quot;:0};" vertex="1" parent="1">
          <mxGeometry x="290" y="170" width="10" height="600" as="geometry" />
        </mxCell>
        <mxCell id="t3-NHMZojohIs2xP0wrp-17" style="edgeStyle=elbowEdgeStyle;rounded=0;orthogonalLoop=1;jettySize=auto;html=1;elbow=vertical;curved=0;entryX=0.341;entryY=-0.008;entryDx=0;entryDy=0;entryPerimeter=0;endArrow=none;endFill=0;dashed=1;" edge="1" parent="1" source="t3-NHMZojohIs2xP0wrp-18" target="t3-NHMZojohIs2xP0wrp-40">
          <mxGeometry relative="1" as="geometry" />
        </mxCell>
        <mxCell id="t3-NHMZojohIs2xP0wrp-18" value="" style="html=1;points=[];perimeter=orthogonalPerimeter;outlineConnect=0;targetShapes=umlLifeline;portConstraint=eastwest;newEdgeStyle={&quot;edgeStyle&quot;:&quot;elbowEdgeStyle&quot;,&quot;elbow&quot;:&quot;vertical&quot;,&quot;curved&quot;:0,&quot;rounded&quot;:0};fillColor=#999999;" vertex="1" parent="1">
          <mxGeometry x="410" y="180" width="10" height="120" as="geometry" />
        </mxCell>
        <mxCell id="t3-NHMZojohIs2xP0wrp-19" value="" style="shape=umlDestroy;whiteSpace=wrap;html=1;strokeWidth=3;targetShapes=umlLifeline;" vertex="1" parent="1">
          <mxGeometry x="835" y="780" width="30" height="30" as="geometry" />
        </mxCell>
        <mxCell id="t3-NHMZojohIs2xP0wrp-27" value="" style="html=1;points=[];perimeter=orthogonalPerimeter;outlineConnect=0;targetShapes=umlLifeline;portConstraint=eastwest;newEdgeStyle={&quot;edgeStyle&quot;:&quot;elbowEdgeStyle&quot;,&quot;elbow&quot;:&quot;vertical&quot;,&quot;curved&quot;:0,&quot;rounded&quot;:0};fillColor=#808080;" vertex="1" parent="1">
          <mxGeometry x="570" y="455" width="10" height="95" as="geometry" />
        </mxCell>
        <mxCell id="t3-NHMZojohIs2xP0wrp-28" value="NewTobaccoBL()" style="html=1;verticalAlign=bottom;endArrow=block;edgeStyle=elbowEdgeStyle;elbow=vertical;curved=0;rounded=0;exitX=1;exitY=0.443;exitDx=0;exitDy=0;exitPerimeter=0;" edge="1" parent="1">
          <mxGeometry width="80" relative="1" as="geometry">
            <mxPoint x="300" y="460.23" as="sourcePoint" />
            <mxPoint x="570" y="460" as="targetPoint" />
          </mxGeometry>
        </mxCell>
        <mxCell id="t3-NHMZojohIs2xP0wrp-29" value="" style="html=1;points=[];perimeter=orthogonalPerimeter;outlineConnect=0;targetShapes=umlLifeline;portConstraint=eastwest;newEdgeStyle={&quot;edgeStyle&quot;:&quot;elbowEdgeStyle&quot;,&quot;elbow&quot;:&quot;vertical&quot;,&quot;curved&quot;:0,&quot;rounded&quot;:0};fillColor=#FFFFFF;" vertex="1" parent="1">
          <mxGeometry x="710" y="460" width="10" height="80" as="geometry" />
        </mxCell>
        <mxCell id="t3-NHMZojohIs2xP0wrp-30" value="GetById()" style="html=1;verticalAlign=bottom;endArrow=block;edgeStyle=elbowEdgeStyle;elbow=vertical;curved=0;rounded=0;entryX=0;entryY=0.143;entryDx=0;entryDy=0;entryPerimeter=0;" edge="1" parent="1" target="t3-NHMZojohIs2xP0wrp-29">
          <mxGeometry width="80" relative="1" as="geometry">
            <mxPoint x="580" y="470" as="sourcePoint" />
            <mxPoint x="650" y="470" as="targetPoint" />
          </mxGeometry>
        </mxCell>
        <mxCell id="t3-NHMZojohIs2xP0wrp-31" value="GetById()" style="html=1;verticalAlign=bottom;endArrow=block;edgeStyle=elbowEdgeStyle;elbow=horizontal;curved=0;rounded=0;entryX=0;entryY=0.143;entryDx=0;entryDy=0;entryPerimeter=0;" edge="1" parent="1">
          <mxGeometry width="80" relative="1" as="geometry">
            <mxPoint x="720" y="480" as="sourcePoint" />
            <mxPoint x="850" y="480" as="targetPoint" />
          </mxGeometry>
        </mxCell>
        <mxCell id="t3-NHMZojohIs2xP0wrp-32" value="" style="html=1;verticalAlign=bottom;endArrow=none;edgeStyle=elbowEdgeStyle;elbow=vertical;curved=0;rounded=0;startArrow=block;startFill=1;endFill=0;" edge="1" parent="1" source="t3-NHMZojohIs2xP0wrp-29">
          <mxGeometry width="80" relative="1" as="geometry">
            <mxPoint x="730" y="520" as="sourcePoint" />
            <mxPoint x="850" y="520" as="targetPoint" />
          </mxGeometry>
        </mxCell>
        <mxCell id="t3-NHMZojohIs2xP0wrp-33" value="" style="html=1;verticalAlign=bottom;endArrow=none;edgeStyle=elbowEdgeStyle;elbow=vertical;curved=0;rounded=0;startArrow=block;startFill=1;endFill=0;" edge="1" parent="1">
          <mxGeometry width="80" relative="1" as="geometry">
            <mxPoint x="580" y="529" as="sourcePoint" />
            <mxPoint x="710" y="529" as="targetPoint" />
          </mxGeometry>
        </mxCell>
        <mxCell id="t3-NHMZojohIs2xP0wrp-34" value="" style="html=1;verticalAlign=bottom;endArrow=none;edgeStyle=elbowEdgeStyle;elbow=vertical;curved=0;rounded=0;exitX=1;exitY=0.443;exitDx=0;exitDy=0;exitPerimeter=0;endFill=0;startArrow=block;startFill=1;" edge="1" parent="1">
          <mxGeometry width="80" relative="1" as="geometry">
            <mxPoint x="300" y="540" as="sourcePoint" />
            <mxPoint x="570" y="540" as="targetPoint" />
          </mxGeometry>
        </mxCell>
        <mxCell id="t3-NHMZojohIs2xP0wrp-35" value="" style="endArrow=classic;html=1;rounded=0;" edge="1" parent="1">
          <mxGeometry relative="1" as="geometry">
            <mxPoint x="300" y="570" as="sourcePoint" />
            <mxPoint x="300" y="630" as="targetPoint" />
            <Array as="points">
              <mxPoint x="330" y="570" />
              <mxPoint x="330" y="630" />
              <mxPoint x="320" y="630" />
            </Array>
          </mxGeometry>
        </mxCell>
        <mxCell id="t3-NHMZojohIs2xP0wrp-36" value="msg: Tobacco not found" style="edgeLabel;resizable=0;html=1;align=center;verticalAlign=middle;" connectable="0" vertex="1" parent="t3-NHMZojohIs2xP0wrp-35">
          <mxGeometry relative="1" as="geometry">
            <mxPoint x="30" as="offset" />
          </mxGeometry>
        </mxCell>
        <mxCell id="t3-NHMZojohIs2xP0wrp-37" value="" style="endArrow=classic;html=1;rounded=0;" edge="1" parent="1">
          <mxGeometry relative="1" as="geometry">
            <mxPoint x="300" y="650" as="sourcePoint" />
            <mxPoint x="300" y="710" as="targetPoint" />
            <Array as="points">
              <mxPoint x="330" y="650" />
              <mxPoint x="330" y="710" />
              <mxPoint x="320" y="710" />
            </Array>
          </mxGeometry>
        </mxCell>
        <mxCell id="t3-NHMZojohIs2xP0wrp-38" value="Show Tobacco" style="edgeLabel;resizable=0;html=1;align=center;verticalAlign=middle;" connectable="0" vertex="1" parent="t3-NHMZojohIs2xP0wrp-37">
          <mxGeometry relative="1" as="geometry">
            <mxPoint x="20" as="offset" />
          </mxGeometry>
        </mxCell>
        <mxCell id="t3-NHMZojohIs2xP0wrp-39" value="ref" style="shape=umlFrame;whiteSpace=wrap;html=1;pointerEvents=0;" vertex="1" parent="1">
          <mxGeometry x="120" y="190" width="340" height="100" as="geometry" />
        </mxCell>
        <mxCell id="t3-NHMZojohIs2xP0wrp-40" value="alt" style="shape=umlFrame;whiteSpace=wrap;html=1;pointerEvents=0;" vertex="1" parent="1">
          <mxGeometry x="180" y="500" width="690" height="270" as="geometry" />
        </mxCell>
        <mxCell id="t3-NHMZojohIs2xP0wrp-41" style="edgeStyle=elbowEdgeStyle;rounded=0;orthogonalLoop=1;jettySize=auto;html=1;elbow=vertical;curved=0;endArrow=none;endFill=0;dashed=1;" edge="1" parent="1">
          <mxGeometry relative="1" as="geometry">
            <mxPoint x="294.5" y="770" as="sourcePoint" />
            <mxPoint x="295" y="800" as="targetPoint" />
          </mxGeometry>
        </mxCell>
        <mxCell id="t3-NHMZojohIs2xP0wrp-42" style="edgeStyle=elbowEdgeStyle;rounded=0;orthogonalLoop=1;jettySize=auto;html=1;elbow=vertical;curved=0;endArrow=none;endFill=0;dashed=1;" edge="1" parent="1">
          <mxGeometry relative="1" as="geometry">
            <mxPoint x="574.5" y="550" as="sourcePoint" />
            <mxPoint x="575" y="800" as="targetPoint" />
          </mxGeometry>
        </mxCell>
        <mxCell id="t3-NHMZojohIs2xP0wrp-43" style="edgeStyle=elbowEdgeStyle;rounded=0;orthogonalLoop=1;jettySize=auto;html=1;elbow=vertical;curved=0;endArrow=none;endFill=0;dashed=1;" edge="1" parent="1">
          <mxGeometry relative="1" as="geometry">
            <mxPoint x="714.5" y="540" as="sourcePoint" />
            <mxPoint x="715" y="800" as="targetPoint" />
          </mxGeometry>
        </mxCell>
        <mxCell id="t3-NHMZojohIs2xP0wrp-44" value="[result=null]" style="text;html=1;strokeColor=none;fillColor=none;align=center;verticalAlign=middle;whiteSpace=wrap;rounded=0;" vertex="1" parent="1">
          <mxGeometry x="200" y="580" width="60" height="30" as="geometry" />
        </mxCell>
        <mxCell id="t3-NHMZojohIs2xP0wrp-45" value="[result a tobacco]" style="text;html=1;strokeColor=none;fillColor=none;align=center;verticalAlign=middle;whiteSpace=wrap;rounded=0;" vertex="1" parent="1">
          <mxGeometry x="200" y="670" width="60" height="30" as="geometry" />
        </mxCell>
        <mxCell id="t3-NHMZojohIs2xP0wrp-46" value="001-Login" style="text;html=1;strokeColor=none;fillColor=none;align=center;verticalAlign=middle;whiteSpace=wrap;rounded=0;" vertex="1" parent="1">
          <mxGeometry x="180" y="225" width="60" height="30" as="geometry" />
        </mxCell>
        <mxCell id="t3-NHMZojohIs2xP0wrp-47" value="input tobacco id" style="html=1;verticalAlign=bottom;endArrow=block;edgeStyle=elbowEdgeStyle;elbow=vertical;curved=0;rounded=0;" edge="1" parent="1">
          <mxGeometry width="80" relative="1" as="geometry">
            <mxPoint x="150" y="320" as="sourcePoint" />
            <mxPoint x="290" y="320" as="targetPoint" />
          </mxGeometry>
        </mxCell>
        <mxCell id="t3-NHMZojohIs2xP0wrp-48" value="[invalid]" style="text;html=1;strokeColor=none;fillColor=none;align=center;verticalAlign=middle;whiteSpace=wrap;rounded=0;" vertex="1" parent="1">
          <mxGeometry x="180" y="340" width="60" height="30" as="geometry" />
        </mxCell>
        <mxCell id="t3-NHMZojohIs2xP0wrp-49" value="" style="endArrow=classic;html=1;rounded=0;" edge="1" parent="1">
          <mxGeometry relative="1" as="geometry">
            <mxPoint x="300" y="340" as="sourcePoint" />
            <mxPoint x="300" y="400" as="targetPoint" />
            <Array as="points">
              <mxPoint x="330" y="340" />
              <mxPoint x="330" y="400" />
              <mxPoint x="320" y="400" />
            </Array>
          </mxGeometry>
        </mxCell>
        <mxCell id="t3-NHMZojohIs2xP0wrp-50" value="msg: Invalid id" style="edgeLabel;resizable=0;html=1;align=center;verticalAlign=middle;" connectable="0" vertex="1" parent="t3-NHMZojohIs2xP0wrp-49">
          <mxGeometry relative="1" as="geometry">
            <mxPoint x="30" as="offset" />
          </mxGeometry>
        </mxCell>
        <mxCell id="t3-NHMZojohIs2xP0wrp-51" value="Loop" style="shape=umlFrame;whiteSpace=wrap;html=1;pointerEvents=0;" vertex="1" parent="1">
          <mxGeometry x="80" y="300" width="320" height="120" as="geometry" />
        </mxCell>
      </root>
    </mxGraphModel>
  </diagram>
</mxfile>
